<svg width="56" height="44" viewBox="0 0 56 44" fill="none" xmlns="http://www.w3.org/2000/svg">
<path d="M54.1521 5.09783C47.5455 5.09783 38.2119 5.57867 33.4422 9.72541C31.3771 11.5217 30.3459 14.45 30.6137 17.7645C30.6484 18.2023 30.9831 18.5752 31.4639 18.7133C31.9423 18.8492 32.4679 18.7219 32.7952 18.3877C35.4478 15.6728 38.7448 13.497 42.6023 11.9207C42.9295 11.7848 43.3162 11.774 43.6682 11.8819C43.9781 11.9789 44.221 12.1622 44.3474 12.3973C44.6102 12.8804 44.5259 13.5165 43.6533 13.8744C43.6037 13.8959 43.5591 13.924 43.5096 13.9434C43.4923 13.9499 43.4724 13.9478 43.4575 13.9542C33.9529 17.8401 29.28 24.6198 27.1579 31.5913C25.6109 22.8623 22.3436 17.7235 19.2572 14.5688C17.0236 12.0502 14.8271 10.7153 13.558 9.96063C13.3224 9.82043 12.611 9.39781 12.316 9.14117C11.8326 8.72067 11.8326 8.03706 12.316 7.61656C12.7994 7.19819 13.5877 7.19819 14.1256 7.66397C14.257 7.76535 14.4677 7.89474 14.7355 8.05L14.9561 8.17938C16.7509 9.24892 20.0927 11.235 23.0576 15.5111C23.3229 15.8928 23.836 16.0977 24.3343 16.0157C24.84 15.938 25.2366 15.5995 25.3359 15.1617C25.9829 12.2873 25.6929 8.0219 22.7453 5.45798C17.9757 1.31336 8.64215 0.83252 2.03801 0.83252C1.35368 0.832418 0.79834 1.31548 0.79834 1.91065C0.79834 7.6574 1.35113 15.7762 6.1183 19.9252C8.10645 21.6546 11.1731 22.4309 14.2197 22.4309C16.7062 22.4309 19.1431 21.8896 21.0098 20.9516C23.5557 25.5403 25.5886 32.3955 25.5886 42.8821C25.5886 43.4772 26.144 43.9603 26.8282 43.9603C27.5124 43.9603 28.0677 43.4772 28.0677 42.8821C28.0677 37.0318 29.2205 30.0105 33.5067 24.2314C35.2247 25.6913 38.1822 26.6164 41.4594 26.7027C41.623 26.707 41.7842 26.7091 41.9452 26.7091C45.2746 26.7091 48.2172 25.8013 50.069 24.1883C54.8386 20.0394 55.389 11.9206 55.389 6.17374C55.3916 5.57867 54.8387 5.09783 54.1521 5.09783Z" fill="#00B307"/>
</svg>
