<svg width="80" height="80" viewBox="0 0 80 80" fill="none" xmlns="http://www.w3.org/2000/svg">
<circle cx="40" cy="40" r="40" transform="matrix(-1 0 0 1 80 0)" fill="#D9D9D9" fill-opacity="0.5"/>
<path d="M16.9946 41.5C16.4423 41.5 15.9946 41.0523 15.9946 40.5C15.9946 39.9477 16.4423 39.5 16.9946 39.5V41.5ZM62.7128 39.7929C63.1034 40.1834 63.1034 40.8166 62.7128 41.2071L56.3489 47.5711C55.9584 47.9616 55.3252 47.9616 54.9347 47.5711C54.5441 47.1805 54.5441 46.5474 54.9347 46.1569L60.5915 40.5L54.9347 34.8431C54.5441 34.4526 54.5441 33.8195 54.9347 33.4289C55.3252 33.0384 55.9584 33.0384 56.3489 33.4289L62.7128 39.7929ZM16.9946 39.5L62.0057 39.5V41.5L16.9946 41.5V39.5Z" fill="white"/>
</svg>
