<svg width="80" height="80" viewBox="0 0 80 80" fill="none" xmlns="http://www.w3.org/2000/svg">
<circle cx="40" cy="40" r="40" fill="#D9D9D9" fill-opacity="0.5"/>
<path d="M63.0054 41.5C63.5577 41.5 64.0054 41.0523 64.0054 40.5C64.0054 39.9477 63.5577 39.5 63.0054 39.5V41.5ZM17.2872 39.7929C16.8966 40.1834 16.8966 40.8166 17.2872 41.2071L23.6511 47.5711C24.0416 47.9616 24.6748 47.9616 25.0653 47.5711C25.4559 47.1805 25.4559 46.5474 25.0653 46.1569L19.4085 40.5L25.0653 34.8431C25.4559 34.4526 25.4559 33.8195 25.0653 33.4289C24.6748 33.0384 24.0416 33.0384 23.6511 33.4289L17.2872 39.7929ZM63.0054 39.5L17.9943 39.5V41.5L63.0054 41.5V39.5Z" fill="white"/>
</svg>
