<svg width="380" height="73" viewBox="0 0 380 73" fill="none" xmlns="http://www.w3.org/2000/svg">
<mask id="path-1-inside-1_4_55" fill="white">
<path d="M0.5 0.140137H379.5V72.3301H0.5V0.140137Z"/>
</mask>
<path d="M0.5 1.14014H379.5V-0.859863H0.5V1.14014Z" fill="#404A3D" fill-opacity="0.1" mask="url(#path-1-inside-1_4_55)"/>
<path d="M359.793 65.2099C359.402 65.6004 359.402 66.2336 359.793 66.6241C360.183 67.0146 360.817 67.0146 361.207 66.6241L359.793 65.2099ZM380.007 47.4102C380.007 46.858 379.559 46.4102 379.007 46.4102L370.007 46.4102C369.454 46.4102 369.007 46.858 369.007 47.4102C369.007 47.9625 369.454 48.4102 370.007 48.4102L378.007 48.4102L378.007 56.4102C378.007 56.9625 378.454 57.4102 379.007 57.4102C379.559 57.4102 380.007 56.9625 380.007 56.4102L380.007 47.4102ZM361.207 66.6241L379.714 48.1173L378.3 46.7031L359.793 65.2099L361.207 66.6241Z" fill="black" fill-opacity="0.8"/>
</svg>
