<svg width="371" height="59" viewBox="0 0 371 59" fill="none" xmlns="http://www.w3.org/2000/svg">
<mask id="path-1-inside-1_4_102" fill="white">
<path d="M0.5 0.544922H370.5V58.5449H0.5V0.544922Z"/>
</mask>
<path d="M0.5 1.54492H370.5V-0.455078H0.5V1.54492Z" fill="#404A3D" fill-opacity="0.1" mask="url(#path-1-inside-1_4_102)"/>
<path d="M355.293 9.20989C354.902 9.60041 354.902 10.2336 355.293 10.6241C355.683 11.0146 356.317 11.0146 356.707 10.6241L355.293 9.20989ZM375.507 -8.58976C375.507 -9.14205 375.059 -9.58976 374.507 -9.58976L365.507 -9.58976C364.954 -9.58976 364.507 -9.14205 364.507 -8.58976C364.507 -8.03748 364.954 -7.58976 365.507 -7.58976L373.507 -7.58976L373.507 0.410237C373.507 0.962521 373.954 1.41024 374.507 1.41024C375.059 1.41024 375.507 0.962522 375.507 0.410237L375.507 -8.58976ZM356.707 10.6241L375.214 -7.88266L373.8 -9.29687L355.293 9.20989L356.707 10.6241Z" fill="black" fill-opacity="0.8"/>
</svg>
