<svg width="378" height="73" viewBox="0 0 378 73" fill="none" xmlns="http://www.w3.org/2000/svg">
<mask id="path-1-inside-1_4_79" fill="white">
<path d="M0 0.225098H377.65V72.4151H0V0.225098Z"/>
</mask>
<path d="M0 1.2251H377.65V-0.774902H0V1.2251Z" fill="#404A3D" fill-opacity="0.1" mask="url(#path-1-inside-1_4_79)"/>
<path d="M356.793 55.7099C356.402 56.1004 356.402 56.7336 356.793 57.1241C357.183 57.5146 357.817 57.5146 358.207 57.1241L356.793 55.7099ZM377.007 37.9102C377.007 37.358 376.559 36.9102 376.007 36.9102L367.007 36.9102C366.454 36.9102 366.007 37.358 366.007 37.9102C366.007 38.4625 366.454 38.9102 367.007 38.9102L375.007 38.9102L375.007 46.9102C375.007 47.4625 375.454 47.9102 376.007 47.9102C376.559 47.9102 377.007 47.4625 377.007 46.9102L377.007 37.9102ZM358.207 57.1241L376.714 38.6173L375.3 37.2031L356.793 55.7099L358.207 57.1241Z" fill="black" fill-opacity="0.8"/>
</svg>
