<svg width="16" height="43" viewBox="0 0 16 43" fill="none" xmlns="http://www.w3.org/2000/svg">
<g clip-path="url(#clip0_1_788)">
<path d="M11.008 13.5H5.008C4.10133 13.5 3.25867 13.7293 2.48 14.188C1.72267 14.6253 1.12533 15.2227 0.688 15.98C0.229333 16.748 0 17.5853 0 18.492V24.492C0 25.3987 0.229333 26.2413 0.688 27.02C1.12533 27.7773 1.72267 28.3747 2.48 28.812C3.25867 29.2707 4.10133 29.5 5.008 29.5H11.008C11.9147 29.5 12.752 29.2707 13.52 28.812C14.2773 28.3747 14.8747 27.7773 15.312 27.02C15.7707 26.2413 16 25.3987 16 24.492V18.492C16 17.5853 15.7707 16.748 15.312 15.98C14.8747 15.2227 14.2773 14.6253 13.52 14.188C12.752 13.7293 11.9147 13.5 11.008 13.5ZM14.496 24.492C14.496 25.1213 14.3387 25.7053 14.024 26.244C13.7093 26.7827 13.2853 27.2093 12.752 27.524C12.2187 27.8387 11.6373 27.996 11.008 27.996H5.008C4.368 27.996 3.78133 27.8387 3.248 27.524C2.71467 27.2093 2.29067 26.7853 1.976 26.252C1.66133 25.7187 1.504 25.132 1.504 24.492V18.492C1.504 17.8627 1.66133 17.2813 1.976 16.748C2.29067 16.2147 2.71733 15.7907 3.256 15.476C3.79467 15.1613 4.37867 15.004 5.008 15.004H11.008C11.6373 15.004 12.2187 15.1613 12.752 15.476C13.2853 15.7907 13.7093 16.2147 14.024 16.748C14.3387 17.2813 14.496 17.8627 14.496 18.492V24.492ZM8 17.5C7.27467 17.5 6.60533 17.6787 5.992 18.036C5.37867 18.3933 4.89333 18.8787 4.536 19.492C4.17867 20.1053 4 20.7747 4 21.5C4 22.2253 4.17867 22.8947 4.536 23.508C4.89333 24.1213 5.37867 24.6067 5.992 24.964C6.60533 25.3213 7.27467 25.5 8 25.5C8.72533 25.5 9.39467 25.3213 10.008 24.964C10.6213 24.6067 11.1067 24.1213 11.464 23.508C11.8213 22.8947 12 22.2253 12 21.5C12 20.7747 11.8213 20.1053 11.464 19.492C11.1067 18.8787 10.6213 18.3933 10.008 18.036C9.39467 17.6787 8.72533 17.5 8 17.5ZM8 23.996C7.552 23.996 7.136 23.884 6.752 23.66C6.368 23.436 6.064 23.132 5.84 22.748C5.616 22.364 5.504 21.948 5.504 21.5C5.504 21.052 5.616 20.636 5.84 20.252C6.064 19.868 6.368 19.564 6.752 19.34C7.136 19.116 7.552 19.004 8 19.004C8.448 19.004 8.864 19.116 9.248 19.34C9.632 19.564 9.936 19.868 10.16 20.252C10.384 20.636 10.496 21.052 10.496 21.5C10.496 21.948 10.384 22.364 10.16 22.748C9.936 23.132 9.632 23.436 9.248 23.66C8.864 23.884 8.448 23.996 8 23.996ZM12.304 16.668C12.4533 16.668 12.5787 16.7187 12.68 16.82C12.7813 16.9213 12.832 17.0467 12.832 17.196C12.832 17.3453 12.7787 17.4733 12.672 17.58C12.5653 17.6867 12.44 17.74 12.296 17.74C12.152 17.74 12.0267 17.6867 11.92 17.58C11.8133 17.4733 11.76 17.3453 11.76 17.196C11.76 17.0467 11.8133 16.9213 11.92 16.82C12.0267 16.7187 12.1547 16.668 12.304 16.668Z" fill="#F9F9F9"/>
</g>
<defs>
<clipPath id="clip0_1_788">
<rect width="16" height="42" fill="white" transform="matrix(1 0 0 -1 0 42.5)"/>
</clipPath>
</defs>
</svg>
