<svg width="16" height="43" viewBox="0 0 16 43" fill="none" xmlns="http://www.w3.org/2000/svg">
<path d="M15.0082 17.5159C14.5602 17.5159 14.1282 17.4439 13.7122 17.2999C13.2962 17.1559 12.9176 16.9559 12.5762 16.6999C12.1816 16.4012 11.8536 16.0439 11.5922 15.6279C11.3309 15.2119 11.1522 14.7586 11.0562 14.2679C11.0029 14.0652 10.9762 13.8146 10.9762 13.5159H8.36822V20.6359L8.35222 24.5399C8.35222 25.0519 8.20289 25.5159 7.90422 25.9319C7.60555 26.3479 7.21622 26.6306 6.73622 26.7799C6.43755 26.8866 6.14422 26.9239 5.85622 26.8919C5.47222 26.8706 5.11489 26.7639 4.78422 26.5719C4.43222 26.3586 4.15222 26.0759 3.94422 25.7239C3.73622 25.3719 3.62955 24.9852 3.62422 24.5639C3.61889 24.1426 3.72022 23.7479 3.92822 23.3799C4.13622 23.0119 4.42422 22.7212 4.79222 22.5079C5.16022 22.2946 5.56289 22.1879 6.00022 22.1879C6.26689 22.1879 6.51222 22.2252 6.73622 22.2999V19.6599C6.52289 19.6172 6.27222 19.5959 5.98422 19.5959C5.26955 19.5959 4.58422 19.7426 3.92822 20.0359C3.27222 20.3292 2.70422 20.7426 2.22422 21.2759C1.86155 21.6919 1.57355 22.1532 1.36022 22.6599C1.14689 23.1666 1.02422 23.6919 0.992219 24.2359C0.949553 24.9506 1.05355 25.6386 1.30422 26.2999C1.55489 26.9612 1.93622 27.5426 2.44822 28.0439C2.61889 28.2146 2.77355 28.3479 2.91222 28.4439C3.34955 28.7852 3.83222 29.0439 4.36022 29.2199C4.88822 29.3959 5.42955 29.4839 5.98422 29.4839C6.25089 29.4839 6.50155 29.4679 6.73622 29.4359C7.81355 29.2759 8.74155 28.8119 9.52022 28.0439C9.98955 27.5852 10.3496 27.0546 10.6002 26.4519C10.8509 25.8492 10.9816 25.2172 10.9922 24.5559L10.9762 18.7319C11.4242 19.0839 11.9096 19.3666 12.4322 19.5799C13.2642 19.9319 14.1282 20.1079 15.0242 20.1079V17.5159H15.0082Z" fill="#F9F9F9"/>
</svg>
