<svg width="14" height="43" viewBox="0 0 14 43" fill="none" xmlns="http://www.w3.org/2000/svg">
<g clip-path="url(#clip0_1_770)">
<path d="M3.26196 19.0824V27.9355H0.316239V19.0824H3.26196ZM3.45407 16.3448C3.45407 16.7824 3.29931 17.1453 2.9898 17.4334C2.68028 17.7216 2.28005 17.8657 1.7891 17.8657H1.77309C1.28214 17.8657 0.887239 17.7216 0.588398 17.4334C0.289557 17.1453 0.140137 16.7824 0.140137 16.3448C0.140137 15.9072 0.294894 15.5443 0.604407 15.2562C0.913921 14.968 1.31415 14.8239 1.80511 14.8239C2.29606 14.8239 2.69096 14.968 2.9898 15.2562C3.28864 15.5443 3.4434 15.9072 3.45407 16.3448ZM13.8601 22.8606V27.9355H10.9304V23.1968C10.9304 22.5671 10.8077 22.0761 10.5622 21.7239C10.3167 21.3717 9.93785 21.1956 9.42555 21.1956C9.052 21.1956 8.74249 21.297 8.49701 21.4998C8.25153 21.7026 8.05942 21.9587 7.92067 22.2682C7.85664 22.4497 7.82462 22.6898 7.82462 22.9887V27.9355H4.8789C4.88957 25.5555 4.89491 23.629 4.89491 22.1562V19.5146L4.8789 19.0824H7.82462V20.3631H7.80861C7.92601 20.171 8.04875 20.0056 8.17682 19.8668C8.3049 19.7281 8.47033 19.5733 8.67311 19.4026C8.8759 19.2318 9.13738 19.1037 9.45757 19.0183C9.77776 18.933 10.1193 18.8849 10.4822 18.8743C11.4961 18.8743 12.3126 19.2105 12.9316 19.8829C13.5506 20.5552 13.8601 21.5478 13.8601 22.8606Z" fill="#F9F9F9"/>
</g>
<defs>
<clipPath id="clip0_1_770">
<rect width="13.72" height="42" fill="white" transform="matrix(1 0 0 -1 0.140137 42.5)"/>
</clipPath>
</defs>
</svg>
