<svg width="19" height="27" viewBox="0 0 19 27" fill="none" xmlns="http://www.w3.org/2000/svg">
<g clip-path="url(#clip0_1_875)">
<path d="M16.9768 5.79781H13.9528C13.9528 4.98181 13.7528 4.22981 13.3528 3.54181C12.9528 2.85382 12.4088 2.30981 11.7208 1.90981C11.0328 1.50981 10.2808 1.30981 9.46484 1.30981C8.64884 1.30981 7.89684 1.50981 7.20884 1.90981C6.52084 2.30981 5.97684 2.85382 5.57684 3.54181C5.17684 4.22981 4.97684 4.98181 4.97684 5.79781H1.97684C1.56084 5.79781 1.20484 5.94581 0.908844 6.24181C0.612844 6.53782 0.464844 6.89381 0.464844 7.30981V23.8218C0.464844 24.2378 0.612844 24.5898 0.908844 24.8778C1.20484 25.1658 1.56084 25.3098 1.97684 25.3098H16.9768C17.3928 25.3098 17.7448 25.1658 18.0328 24.8778C18.3208 24.5898 18.4648 24.2378 18.4648 23.8218V7.30981C18.4648 6.89381 18.3208 6.53782 18.0328 6.24181C17.7448 5.94581 17.3928 5.79781 16.9768 5.79781ZM9.46484 2.79781C10.0088 2.79781 10.5088 2.93382 10.9648 3.20581C11.4208 3.47781 11.7848 3.84181 12.0568 4.29781C12.3288 4.75381 12.4648 5.25381 12.4648 5.79781H6.48884C6.48884 5.25381 6.62484 4.75381 6.89684 4.29781C7.16884 3.84181 7.52884 3.48181 7.97684 3.21781C8.42484 2.95381 8.92084 2.81381 9.46484 2.79781ZM16.9768 23.8218H1.97684V7.30981H16.9768V23.8218ZM7.20884 10.3098H11.7208C11.9288 10.3098 12.1088 10.2378 12.2608 10.0938C12.4128 9.94981 12.4888 9.76981 12.4888 9.55381C12.4888 9.33781 12.4128 9.15781 12.2608 9.01381C12.1088 8.86981 11.9288 8.79781 11.7208 8.79781H7.20884C7.00084 8.79781 6.82084 8.86981 6.66884 9.01381C6.51684 9.15781 6.44084 9.33781 6.44084 9.55381C6.44084 9.76981 6.51684 9.94981 6.66884 10.0938C6.82084 10.2378 7.00084 10.3098 7.20884 10.3098Z" fill="#F9F9F9"/>
</g>
<defs>
<clipPath id="clip0_1_875">
<rect width="18" height="26.39" fill="white" transform="matrix(1 0 0 -1 0.464844 26.5049)"/>
</clipPath>
</defs>
</svg>
