<svg width="22" height="43" viewBox="0 0 22 43" fill="none" xmlns="http://www.w3.org/2000/svg">
<g clip-path="url(#clip0_1_794)">
<path d="M18.8962 20.7256C19.3656 20.7256 19.7999 20.6059 20.1989 20.3665C20.598 20.127 20.9055 19.8008 21.1214 19.3876C20.7459 19.566 20.3515 19.681 19.9384 19.7327C19.5252 19.7843 19.1168 19.7632 18.7131 19.6693C18.6849 19.5097 18.6473 19.3501 18.6004 19.1905C18.4502 18.5332 18.1614 17.944 17.7342 17.4229C17.307 16.9018 16.7906 16.4981 16.185 16.2117C15.5794 15.9253 14.9385 15.7868 14.2625 15.7962L14.7414 15.6272C14.7695 15.6178 14.8493 15.5943 14.9808 15.5568C15.3188 15.4723 15.5629 15.3972 15.7132 15.3314C15.9761 15.2 16.077 15.0615 16.016 14.916C15.9549 14.7704 15.7226 14.7493 15.3188 14.8526C15.0935 14.9089 14.7601 15.0169 14.3188 15.1765L14.0231 15.2892C14.3048 15.1859 14.5254 15.0826 14.685 14.9793C14.9385 14.8197 15.0794 14.646 15.1076 14.4582C14.4972 14.5521 13.9621 14.8056 13.502 15.2188C13.671 15.0498 13.7743 14.8479 13.8118 14.6131C13.1076 15.0544 12.4691 15.754 11.8964 16.7117C11.4927 17.4065 11.0654 18.3501 10.6148 19.5426C10.1547 19.0637 9.63826 18.6506 9.06551 18.3032C7.36604 17.4112 5.61492 16.6412 3.81217 15.9934C3.81217 16.5567 3.97179 17.0755 4.29103 17.5497C4.61026 18.0238 5.03278 18.3642 5.55859 18.5708C5.13607 18.552 4.71824 18.5989 4.30511 18.7116C4.40839 19.2092 4.61965 19.6177 4.93889 19.9369C5.31446 20.3125 5.86844 20.5848 6.6008 20.7538C6.3379 20.7444 6.08439 20.7866 5.84027 20.8805C5.59614 20.9744 5.38019 21.1153 5.1924 21.3031C5.43653 21.7631 5.79097 22.1058 6.25575 22.3312C6.72052 22.5565 7.20642 22.6223 7.71344 22.5284C7.34726 22.688 7.10314 22.8805 6.98107 23.1058C6.8684 23.3124 6.86371 23.5166 6.96699 23.7185C7.07027 23.9203 7.24867 24.0753 7.50218 24.1832C7.75569 24.2912 8.03737 24.3217 8.34722 24.2748C7.67119 24.9696 6.8731 25.4485 5.95294 25.7114C5.05156 25.9743 4.14549 26.0024 3.23472 25.7959C2.30518 25.5799 1.48361 25.1433 0.77002 24.486C1.76529 25.8381 2.9953 26.8616 4.46003 27.5564C5.8121 28.1948 7.27684 28.5235 8.85425 28.5422C10.3565 28.5516 11.8072 28.2793 13.2062 27.7254C14.6052 27.1714 15.7883 26.4015 16.7554 25.4156C17.7788 24.3734 18.4502 23.195 18.7694 21.8805C19.2295 21.9181 19.6731 21.8547 20.1003 21.6904C20.5276 21.5261 20.9008 21.2796 21.22 20.951C20.4313 21.0636 19.6567 20.9885 18.8962 20.7256Z" fill="#F9F9F9"/>
</g>
<defs>
<clipPath id="clip0_1_794">
<rect width="20.45" height="42" fill="white" transform="matrix(1 0 0 -1 0.77002 42.5)"/>
</clipPath>
</defs>
</svg>
