<svg width="5" height="7" viewBox="0 0 5 7" fill="none" xmlns="http://www.w3.org/2000/svg">
<g clip-path="url(#clip0_4_36)">
<path d="M0.397276 1.42748L0.268316 1.5606L0.438876 1.7062C0.718983 1.93916 1.03792 2.11665 1.39568 2.23868C1.53157 2.28582 1.64944 2.31633 1.74928 2.3302C1.85744 2.34684 2.01413 2.35654 2.21936 2.35932C2.36357 2.35932 2.49946 2.35654 2.62704 2.351C2.76016 2.34545 2.85029 2.33713 2.89744 2.32604C2.93349 2.31772 2.95429 2.3191 2.95984 2.3302C2.96538 2.34129 2.94944 2.37041 2.912 2.41756C2.87456 2.4647 2.8073 2.54097 2.71024 2.64636C2.61594 2.74342 2.47728 2.88486 2.29424 3.07068L1.61616 3.75292L0.160156 5.20892L0.276636 5.33372L0.401436 5.4502L1.85744 3.9942L2.53968 3.31612C2.72549 3.13308 2.86693 2.99441 2.964 2.90012C3.06938 2.80305 3.14565 2.7358 3.1928 2.69836C3.23994 2.66092 3.26906 2.64497 3.28016 2.65052C3.29125 2.65606 3.29264 2.67686 3.28432 2.71292C3.27322 2.76006 3.2649 2.8502 3.25936 2.98332C3.25381 3.11089 3.25104 3.24678 3.25104 3.391C3.25381 3.59622 3.26352 3.75292 3.28016 3.86108C3.29402 3.96092 3.32453 4.07878 3.37168 4.21468C3.4937 4.57244 3.6712 4.89137 3.90416 5.17148L4.04976 5.34204L4.18288 5.21308L4.32016 5.08412L4.21616 4.9718C4.16069 4.9191 4.07194 4.7943 3.94992 4.5974C3.77242 4.30342 3.66149 3.98726 3.61712 3.64892C3.57274 3.31334 3.59562 2.98124 3.68576 2.6526C3.77589 2.32396 3.92912 2.02236 4.14544 1.7478L4.316 1.53148L4.20368 1.41084L4.0872 1.29436L3.97488 1.38172C3.8473 1.47878 3.71002 1.57238 3.56304 1.66252C3.41605 1.75265 3.29402 1.81713 3.19696 1.85596C3.0472 1.9142 2.85653 1.95926 2.62496 1.99116C2.39338 2.02305 2.20272 2.02929 2.05296 2.00988C1.79504 1.97937 1.53365 1.90657 1.2688 1.79148C1.00394 1.67638 0.793863 1.54396 0.638556 1.3942L0.526236 1.2902L0.397276 1.42748Z" fill="#404A3D"/>
</g>
<defs>
<clipPath id="clip0_4_36">
<rect width="4.16" height="6.24" fill="white" transform="matrix(1 0 0 -1 0.160156 6.49023)"/>
</clipPath>
</defs>
</svg>
