<svg width="16" height="43" viewBox="0 0 16 43" fill="none" xmlns="http://www.w3.org/2000/svg">
<g clip-path="url(#clip0_1_782)">
<path d="M15.872 18.476C15.84 18.092 15.744 17.7293 15.584 17.388C15.4133 16.9933 15.1947 16.6787 14.928 16.444C14.608 16.1773 14.2453 16.0387 13.84 16.028C11.8987 15.8893 9.96267 15.8147 8.032 15.804C5.888 15.804 3.93067 15.8787 2.16 16.028C1.79733 16.0707 1.456 16.236 1.136 16.524C0.858667 16.78 0.632 17.1 0.456 17.484C0.28 17.868 0.176 18.2467 0.144 18.62C0.048 19.74 0 20.6973 0 21.492C0 22.2867 0.048 23.244 0.144 24.364C0.176 24.7373 0.277333 25.1107 0.448 25.484C0.629333 25.8893 0.858667 26.22 1.136 26.476C1.44533 26.7747 1.78667 26.9453 2.16 26.988C4.13333 27.116 6.096 27.18 8.048 27.18C10.16 27.1907 12.0907 27.1267 13.84 26.988C14.2027 26.924 14.5387 26.748 14.848 26.46C15.136 26.1933 15.3707 25.868 15.552 25.484C15.7333 25.1 15.84 24.7267 15.872 24.364C15.9573 23.244 16 22.2627 16 21.42C16 20.5773 15.9573 19.596 15.872 18.476ZM6 24.332V18.588L10.992 21.468L6 24.332Z" fill="#F9F9F9"/>
</g>
<defs>
<clipPath id="clip0_1_782">
<rect width="16" height="42" fill="white" transform="matrix(1 0 0 -1 0 42.5)"/>
</clipPath>
</defs>
</svg>
