<svg width="5" height="7" viewBox="0 0 5 7" fill="none" xmlns="http://www.w3.org/2000/svg">
<g clip-path="url(#clip0_4_63)">
<path d="M0.397276 1.51244L0.268316 1.64556L0.438876 1.79116C0.718983 2.02412 1.03792 2.20161 1.39568 2.32364C1.53157 2.37078 1.64944 2.40129 1.74928 2.41516C1.85744 2.4318 2.01413 2.4415 2.21936 2.44428C2.36357 2.44428 2.49946 2.4415 2.62704 2.43596C2.76016 2.43041 2.85029 2.42209 2.89744 2.411C2.93349 2.40268 2.95429 2.40406 2.95984 2.41516C2.96538 2.42625 2.94944 2.45537 2.912 2.50252C2.87456 2.54966 2.8073 2.62593 2.71024 2.73132C2.61594 2.82838 2.47728 2.96982 2.29424 3.15564L1.61616 3.83788L0.160156 5.29388L0.276636 5.41868L0.401436 5.53516L1.85744 4.07916L2.53968 3.40108C2.72549 3.21804 2.86693 3.07937 2.964 2.98508C3.06938 2.88801 3.14565 2.82076 3.1928 2.78332C3.23994 2.74588 3.26906 2.72993 3.28016 2.73548C3.29125 2.74102 3.29264 2.76182 3.28432 2.79788C3.27322 2.84502 3.2649 2.93516 3.25936 3.06828C3.25381 3.19585 3.25104 3.33174 3.25104 3.47596C3.25381 3.68118 3.26352 3.83788 3.28016 3.94604C3.29402 4.04588 3.32453 4.16374 3.37168 4.29964C3.4937 4.6574 3.6712 4.97633 3.90416 5.25644L4.04976 5.427L4.18288 5.29804L4.32016 5.16908L4.21616 5.05676C4.16069 5.00406 4.07194 4.87926 3.94992 4.68236C3.77242 4.38838 3.66149 4.07222 3.61712 3.73388C3.57274 3.3983 3.59562 3.0662 3.68576 2.73756C3.77589 2.40892 3.92912 2.10732 4.14544 1.83276L4.316 1.61644L4.20368 1.4958L4.0872 1.37932L3.97488 1.46668C3.8473 1.56374 3.71002 1.65734 3.56304 1.74748C3.41605 1.83761 3.29402 1.90209 3.19696 1.94092C3.0472 1.99916 2.85653 2.04422 2.62496 2.07612C2.39338 2.10801 2.20272 2.11425 2.05296 2.09484C1.79504 2.06433 1.53365 1.99153 1.2688 1.87644C1.00394 1.76134 0.793863 1.62892 0.638556 1.47916L0.526236 1.37516L0.397276 1.51244Z" fill="#404A3D"/>
</g>
<defs>
<clipPath id="clip0_4_63">
<rect width="4.16" height="6.24" fill="white" transform="matrix(1 0 0 -1 0.160156 6.5752)"/>
</clipPath>
</defs>
</svg>
