<svg width="21" height="27" viewBox="0 0 21 27" fill="none" xmlns="http://www.w3.org/2000/svg">
<g clip-path="url(#clip0_1_889)">
<path d="M10.5758 14.6368H10.7198C12.1763 14.6208 13.3446 14.1164 14.2249 13.1236C14.801 12.4831 15.2252 11.6505 15.4972 10.6257C15.6893 9.87308 15.8013 9.06444 15.8333 8.19977C15.8493 7.65534 15.8333 7.223 15.7853 6.90275C15.7373 5.70181 15.4492 4.69302 14.9211 3.87638C14.537 3.25189 14.0248 2.7555 13.3846 2.38722C12.6004 1.95488 11.7121 1.7227 10.7198 1.69067H10.6238C10.2397 1.69067 9.85559 1.7307 9.47148 1.81076C8.92732 1.92285 8.42317 2.107 7.95903 2.3632C7.31884 2.73149 6.79069 3.22787 6.37457 3.85236C5.84641 4.68501 5.55833 5.70181 5.51031 6.90275C5.4623 7.223 5.44629 7.65534 5.4623 8.19977C5.49431 9.06444 5.60634 9.87308 5.7984 10.6257C6.07048 11.6505 6.4946 12.4831 7.07077 13.1236C7.95103 14.1164 9.11937 14.6208 10.5758 14.6368ZM6.8307 7.02284C6.8307 7.00683 6.8307 6.99082 6.8307 6.97481C6.91072 5.4376 7.43088 4.33274 8.39116 3.66021C9.01534 3.24389 9.75956 3.03572 10.6238 3.03572H10.6718C11.6001 3.05174 12.3763 3.29192 13.0005 3.75629C13.8968 4.4128 14.3849 5.48564 14.4649 6.97481V7.04686C14.529 7.7354 14.521 8.42394 14.4409 9.11248C14.2809 10.4735 13.8808 11.5144 13.2406 12.2349C12.6324 12.9235 11.7762 13.2757 10.6718 13.2918H10.6238C9.51949 13.2597 8.67124 12.9075 8.07907 12.2349C7.43888 11.5144 7.03876 10.4655 6.87871 9.08846C6.79869 8.38391 6.78269 7.70338 6.8307 7.04686V7.02284ZM20.8748 20.7616L20.8508 20.6415C20.8348 19.7768 20.7308 19.0723 20.5387 18.5279C20.1866 17.5671 19.5464 16.9266 18.6182 16.6063C18.5862 16.6063 18.5701 16.5983 18.5701 16.5823C17.8979 16.4222 17.2097 16.182 16.5055 15.8618C15.9774 15.6216 15.4812 15.3654 15.0171 15.0932C14.633 14.853 14.4409 14.7249 14.4409 14.7089C14.2809 14.5968 14.1128 14.5567 13.9368 14.5888C13.7607 14.6208 13.6167 14.7169 13.5047 14.877C13.3926 15.0371 13.3526 15.2052 13.3846 15.3814C13.4166 15.5575 13.5127 15.7016 13.6727 15.8137H13.6967C14.1128 16.102 14.585 16.3902 15.1131 16.6784C16.1694 17.2228 17.2017 17.6231 18.21 17.8793C18.7222 18.0555 19.0823 18.4318 19.2904 19.0082C19.4184 19.3765 19.4984 19.9289 19.5304 20.6655V20.7856C19.5304 21.4742 19.4984 21.9866 19.4344 22.3228C18.6182 22.7712 17.6499 23.1715 16.5295 23.5238C14.673 24.0842 12.7164 24.3644 10.6598 24.3644C8.60322 24.3644 6.64665 24.0842 4.7901 23.5238C3.66977 23.1715 2.70149 22.7712 1.88525 22.3228C1.85324 22.1307 1.82523 21.8825 1.80122 21.5782C1.77722 21.274 1.77321 21.0098 1.78922 20.7856V20.6655C1.80522 19.945 1.88525 19.3925 2.02929 19.0082C2.23735 18.4318 2.59746 18.0555 3.10961 17.8793C4.1179 17.6071 5.15821 17.1988 6.23052 16.6544C6.75868 16.3662 7.23082 16.0859 7.64694 15.8137C7.80699 15.7016 7.90301 15.5575 7.93502 15.3814C7.96703 15.2052 7.92702 15.0371 7.81499 14.877C7.70296 14.7169 7.55891 14.6208 7.38286 14.5888C7.20681 14.5567 7.03876 14.5968 6.87871 14.7089C6.8307 14.7569 6.63864 14.877 6.30254 15.0691C5.8224 15.3574 5.32626 15.6136 4.81411 15.8377C4.1099 16.158 3.4217 16.4062 2.7495 16.5823L2.70149 16.6063C1.78922 16.9266 1.15703 17.5431 0.80493 18.4558C0.612874 18.9682 0.492838 19.6567 0.444824 20.5214V20.7616C0.444824 21.8184 0.53285 22.571 0.708902 23.0194C0.756916 23.1475 0.836939 23.2515 0.948972 23.3316L0.972979 23.3556C1.75721 23.82 2.70149 24.2443 3.80581 24.6286C5.95044 25.3492 8.23911 25.7095 10.6718 25.7095C12.4483 25.7095 14.1609 25.5093 15.8093 25.109C17.0097 24.8208 18.114 24.4445 19.1223 23.9801C19.6665 23.7399 20.0826 23.5238 20.3707 23.3316C20.4987 23.2515 20.5867 23.1475 20.6348 23.0194C20.7948 22.571 20.8748 21.8184 20.8748 20.7616Z" fill="#F9F9F9"/>
</g>
<defs>
<clipPath id="clip0_1_889">
<rect width="20.43" height="26.39" fill="white" transform="matrix(1 0 0 -1 0.444824 26.895)"/>
</clipPath>
</defs>
</svg>
