<svg width="411" height="530" viewBox="0 0 411 530" fill="none" xmlns="http://www.w3.org/2000/svg">
<mask id="mask0_4_90" style="mask-type:alpha" maskUnits="userSpaceOnUse" x="0" y="0" width="411" height="530">
<g clip-path="url(#clip0_4_90)">
<path d="M19.3129 1.42038L16.6602 2.48568L14.1551 3.81068L11.8181 5.37948L9.66558 7.17088L7.70579 9.17428L5.96328 11.3738L4.44218 13.7429L3.16708 16.271L2.15029 18.9369L1.39999 21.73L1.19499 24.7828L1.02279 32.0491L0.879285 43.7462L0.764485 60.0861L0.682485 81.2914L0.625085 107.569L0.596385 139.136L0.592285 176.209L0.612785 219.001L0.657885 267.729L0.928485 502.954L0.957185 504.125L1.03919 505.297L1.17039 506.457L1.35489 507.607L1.59269 508.747L1.88379 509.876L2.21999 510.994L2.60949 512.091L3.04819 513.178L3.53609 514.238L4.44629 515.976L5.47129 517.635L6.60289 519.22L7.83289 520.709L9.16128 522.114L10.584 523.423L12.0928 524.626L13.6795 525.728L15.3482 526.719L17.0866 527.594L17.9394 527.965L18.8004 528.299L19.6778 528.59L20.5634 528.85L21.4613 529.067L22.3674 529.247L23.2776 529.39L24.196 529.491L25.1185 529.555L26.0451 529.576L165.683 529.852L189.385 529.873L211.119 529.862L230.869 529.814L248.614 529.74L264.345 529.65L278.035 529.544L289.675 529.438L299.249 529.337L306.735 529.247L312.118 529.173L313.525 529.141L314.923 529.057L316.321 528.924L317.711 528.739L319.093 528.511L320.466 528.224L321.831 527.896L323.18 527.52L324.521 527.09L325.845 526.613L327.186 526.083L328.498 525.495L329.777 524.843L331.028 524.138L332.245 523.375L333.426 522.553L334.57 521.684L335.677 520.757L336.743 519.782L337.764 518.753L339.174 517.19L340.38 515.764L341.425 514.365L342.368 512.897L343.25 511.254L344.123 509.335L345.041 507.04L346.046 504.258L347.194 500.892L348.531 496.843L350.474 491.268L352.38 486.545L354.344 482.576L356.472 479.247L358.879 476.459L361.659 474.106L364.926 472.082L368.785 470.285L373.34 468.605L378.694 466.941L384.647 465.07L389.793 463.135L394.205 461.084L397.94 458.853L401.064 456.383L403.639 453.616L405.738 450.489L407.419 446.944L408.747 442.916L409.785 438.352L409.994 435.469L410.166 429.152L410.309 419.156L410.42 405.259L410.506 387.223L410.564 364.81L410.592 337.795L410.596 305.942L410.572 269.012L410.531 226.776L410.252 25.917L410.227 24.9153L410.158 23.9189L410.047 22.9278L409.891 21.942L409.69 20.9668L409.444 20.0022L409.157 19.0535L408.829 18.1101L408.456 17.1879L408.042 16.2763L407.653 15.476L406.738 13.7429L405.717 12.0787L404.586 10.4993L403.356 9.00468L402.027 7.60548L400.605 6.29638L399.096 5.09328L397.509 3.99088L395.84 2.99978L394.102 2.12528L393.249 1.75428L392.384 1.42038L391.507 1.12358L390.621 0.869181L389.723 0.651881L388.817 0.471681L387.903 0.333881L386.984 0.233181L386.062 0.169581L385.135 0.148381L206.986 -1.87531e-05L159.656 -0.0477187L121.218 -0.0742188H90.7226L67.2132 -0.0371188L49.7308 0.0423812L37.3242 0.180181L29.034 0.376281L23.9049 0.641281L20.9857 0.985781L19.3129 1.42038Z" fill="#54A029"/>
</g>
</mask>
<g mask="url(#mask0_4_90)">
<path d="M2.8418 4.32178H412.842C412.842 211.3 412.842 327.344 412.842 534.322H2.8418V4.32178Z" fill="#329244"/>
</g>
<defs>
<clipPath id="clip0_4_90">
<rect width="410" height="530" fill="white" transform="translate(0.649902)"/>
</clipPath>
</defs>
</svg>
