<svg width="410" height="520" viewBox="0 0 410 520" fill="none" xmlns="http://www.w3.org/2000/svg">
<mask id="mask0_4_67" style="mask-type:alpha" maskUnits="userSpaceOnUse" x="0" y="0" width="410" height="520">
<g clip-path="url(#clip0_4_67)">
<path d="M18.6475 1.97482L15.9971 3.01767L13.4941 4.31474L11.1591 5.85048L9.00843 7.60413L7.0503 9.5653L5.30929 11.7184L3.78948 14.0376L2.51547 16.5124L1.49954 19.1222L0.749882 21.8564L0.545057 24.8448L0.373004 31.958L0.229626 43.4086L0.114924 59.4041L0.0329941 80.1625L-0.0243569 105.886L-0.0530324 136.788L-0.0571289 173.08L-0.0366464 214.97L0.0084151 262.671L0.278784 492.938L0.30746 494.085L0.38939 495.232L0.520478 496.368L0.70482 497.494L0.942417 498.609L1.23327 499.714L1.56918 500.809L1.95835 501.883L2.39667 502.947L2.88416 503.984L3.79358 505.686L4.81771 507.31L5.94834 508.861L7.17729 510.319L8.50456 511.694L9.92604 512.976L11.4336 514.153L13.0189 515.233L14.6862 516.203L16.4231 517.059L17.2752 517.422L18.1354 517.749L19.0121 518.034L19.8969 518.289L20.7941 518.501L21.6994 518.678L22.6088 518.818L23.5264 518.916L24.4481 518.979L25.3739 518.999L164.893 519.269L188.574 519.29L210.29 519.279L230.023 519.233L247.752 519.16L263.471 519.072L277.149 518.968L288.779 518.864L298.344 518.766L305.824 518.678L311.203 518.605L312.608 518.574L314.005 518.491L315.402 518.361L316.791 518.18L318.171 517.956L319.544 517.676L320.908 517.355L322.255 516.986L323.595 516.566L324.918 516.099L326.258 515.58L327.569 515.004L328.847 514.366L330.096 513.676L331.313 512.929L332.493 512.125L333.636 511.274L334.742 510.366L335.807 509.411L336.827 508.405L338.236 506.874L339.44 505.479L340.485 504.109L341.427 502.672L342.308 501.063L343.18 499.185L344.098 496.939L345.102 494.215L346.249 490.92L347.584 486.956L349.526 481.498L351.431 476.875L353.393 472.989L355.519 469.731L357.924 467.002L360.701 464.699L363.966 462.717L367.821 460.958L372.372 459.313L377.722 457.684L383.67 455.852L388.811 453.959L393.219 451.951L396.951 449.767L400.073 447.349L402.645 444.641L404.743 441.579L406.422 438.109L407.749 434.165L408.786 429.698L408.995 426.876L409.167 420.691L409.31 410.906L409.421 397.303L409.507 379.647L409.564 357.705L409.593 331.261L409.597 300.079L409.572 263.927L409.531 222.581L409.253 25.9551L409.228 24.9746L409.159 23.9992L409.048 23.0289L408.892 22.0639L408.692 21.1093L408.446 20.165L408.159 19.2363L407.831 18.3128L407.459 17.41L407.045 16.5176L406.656 15.7342L405.742 14.0376L404.722 12.4085L403.591 10.8624L402.363 9.39928L401.035 8.02957L399.614 6.74806L398.106 5.57031L396.521 4.49114L394.854 3.52093L393.117 2.66486L392.265 2.30168L391.4 1.97482L390.524 1.68427L389.639 1.43524L388.742 1.22252L387.836 1.04611L386.923 0.911218L386.005 0.81264L385.083 0.750381L384.158 0.729627L206.161 0.584355L158.871 0.53766L120.466 0.511719H89.9962L66.5069 0.548037L49.0394 0.625861L36.6434 0.760757L28.3603 0.952724L23.2356 1.21214L20.3189 1.54938L18.6475 1.97482Z" fill="black"/>
</g>
</mask>
<g mask="url(#mask0_4_67)">
<rect x="-0.5" y="1.33252" width="410" height="518.078" fill="white"/>
</g>
<defs>
<clipPath id="clip0_4_67">
<rect width="409.65" height="518.83" fill="white" transform="translate(0 0.584961)"/>
</clipPath>
</defs>
</svg>
