<svg width="410" height="511" viewBox="0 0 410 511" fill="none" xmlns="http://www.w3.org/2000/svg">
<mask id="mask0_4_40" style="mask-type:alpha" maskUnits="userSpaceOnUse" x="0" y="0" width="410" height="511">
<g clip-path="url(#clip0_4_40)">
<path d="M18.6635 1.86687L16.0108 2.89125L13.5057 4.16535L11.1687 5.67388L9.01617 7.39647L7.05637 9.32291L5.31387 11.4379L3.79277 13.716L2.51767 16.147L1.50087 18.7105L0.750571 21.3963L0.545571 24.3318L0.373371 31.319L0.229871 42.5667L0.115071 58.2789L0.0330711 78.6696L-0.0243289 103.938L-0.0530289 134.292L-0.0571289 169.941L-0.0366289 211.089L0.00847109 257.946L0.279071 484.134L0.307771 485.26L0.389771 486.387L0.520971 487.503L0.705471 488.609L0.943271 489.704L1.23437 490.79L1.57057 491.865L1.96007 492.92L2.39877 493.965L2.88667 494.984L3.79687 496.656L4.82187 498.251L5.95347 499.775L7.18347 501.207L8.51187 502.558L9.93457 503.816L11.4434 504.973L13.0301 506.033L14.6988 506.986L16.4372 507.827L17.29 508.184L18.151 508.505L19.0284 508.785L19.914 509.035L20.8119 509.244L21.718 509.417L22.6282 509.555L23.5466 509.652L24.4691 509.713L25.3957 509.733L165.033 509.998L188.736 510.019L210.47 510.009L230.219 509.963L247.964 509.891L263.696 509.805L277.386 509.703L289.026 509.601L298.599 509.504L306.086 509.417L311.469 509.346L312.875 509.315L314.273 509.234L315.672 509.106L317.061 508.928L318.443 508.709L319.817 508.434L321.182 508.118L322.531 507.756L323.872 507.343L325.196 506.884L326.537 506.375L327.849 505.809L329.128 505.182L330.378 504.504L331.596 503.771L332.777 502.981L333.921 502.145L335.028 501.253L336.094 500.315L337.115 499.326L338.525 497.823L339.73 496.452L340.776 495.107L341.719 493.695L342.6 492.115L343.474 490.27L344.392 488.063L345.397 485.388L346.545 482.152L347.881 478.258L349.825 472.897L351.731 468.356L353.695 464.538L355.823 461.338L358.23 458.657L361.009 456.394L364.277 454.448L368.135 452.72L372.69 451.104L378.045 449.504L383.998 447.705L389.144 445.845L393.555 443.873L397.29 441.727L400.414 439.352L402.989 436.692L405.088 433.685L406.769 430.275L408.098 426.402L409.135 422.014L409.344 419.242L409.516 413.167L409.66 403.555L409.771 390.192L409.857 372.849L409.914 351.296L409.943 325.32L409.947 294.691L409.922 259.179L409.881 218.566L409.603 25.4224L409.578 24.4592L409.508 23.5011L409.398 22.5481L409.242 21.6001L409.041 20.6624L408.795 19.7348L408.508 18.8226L408.18 17.9154L407.807 17.0287L407.393 16.1521L407.003 15.3825L406.089 13.716L405.068 12.1157L403.936 10.597L402.706 9.15982L401.378 7.81437L399.955 6.55556L398.446 5.39868L396.86 4.33863L395.191 3.3856L393.453 2.54469L392.6 2.18795L391.735 1.86687L390.857 1.58147L389.972 1.33685L389.074 1.12789L388.168 0.954617L387.253 0.82211L386.335 0.725279L385.413 0.664122L384.486 0.643736L206.337 0.501037L159.006 0.45517L120.569 0.429688H90.0732L66.5638 0.465362L49.0814 0.541808L36.6748 0.674315L28.3846 0.862882L23.2555 1.1177L20.3363 1.44897L18.6635 1.86687Z" fill="black"/>
</g>
</mask>
<g mask="url(#mask0_4_40)">
<path d="M0 0.5H410V510.14H0V0.5Z" fill="white"/>
</g>
<defs>
<clipPath id="clip0_4_40">
<rect width="410" height="509.64" fill="white" transform="translate(0 0.5)"/>
</clipPath>
</defs>
</svg>
