<svg width="54" height="43" viewBox="0 0 54 43" fill="none" xmlns="http://www.w3.org/2000/svg">
<path d="M52.7765 4.43313C46.2414 4.43313 37.0088 4.90788 32.2907 9.00202C30.2479 10.7755 29.2279 13.6667 29.4927 16.9391C29.5271 17.3713 29.8582 17.7396 30.3338 17.8759C30.8071 18.0101 31.327 17.8844 31.6507 17.5545C34.2746 14.874 37.536 12.7258 41.3516 11.1694C41.6753 11.0353 42.0579 11.0246 42.406 11.1311C42.7126 11.2269 42.9529 11.4079 43.0779 11.64C43.3378 12.1169 43.2545 12.745 42.3913 13.0984C42.3423 13.1196 42.2981 13.1474 42.2491 13.1665C42.232 13.1729 42.2124 13.1708 42.1977 13.1772C32.7959 17.0138 28.1735 23.7075 26.0743 30.5906C24.5441 21.9723 21.3122 16.8987 18.2592 13.784C16.0498 11.2973 13.877 9.97935 12.6216 9.23425C12.3886 9.09583 11.6849 8.67857 11.393 8.42518C10.9148 8.01002 10.9148 7.33508 11.393 6.91992C11.8712 6.50685 12.651 6.50685 13.1831 6.96672C13.3131 7.06682 13.5215 7.19456 13.7863 7.34785L14.0046 7.4756C15.78 8.53157 19.0856 10.4924 22.0184 14.7143C22.2808 15.0911 22.7884 15.2934 23.2813 15.2125C23.7816 15.1358 24.1739 14.8016 24.2721 14.3694C24.9121 11.5314 24.6252 7.32011 21.7095 4.78871C16.9915 0.696667 7.75895 0.221924 1.22626 0.221924C0.549334 0.221824 0 0.698762 0 1.28638C0 6.96024 0.546805 14.9761 5.26241 19.0724C7.22904 20.7799 10.2625 21.5463 13.2762 21.5463C15.7357 21.5463 18.1463 21.0119 19.9928 20.0858C22.5112 24.6163 24.5221 31.3846 24.5221 41.7381C24.5221 42.3257 25.0714 42.8027 25.7482 42.8027C26.425 42.8027 26.9744 42.3257 26.9744 41.7381C26.9744 35.9621 28.1146 29.0298 32.3545 23.324C34.0539 24.7654 36.9794 25.6788 40.2211 25.7639C40.383 25.7682 40.5424 25.7703 40.7017 25.7703C43.9951 25.7703 46.9058 24.874 48.7376 23.2814C53.4556 19.1852 54 11.1693 54 5.49539C54.0026 4.90788 53.4557 4.43313 52.7765 4.43313Z" fill="#00B307"/>
</svg>
